@startuml Energy Grid Equipment

!include energy-grid-connectivity.puml
' !include energy-grid-voltage.puml

' A modelling construct to provide a root class for containing equipment.
entity EquipmentContainer <<abstract>> extends ConnectivityNodeContainer {
    ' Equipments --> Equipment /' Contained equipment. '/
}

' The parts of a power system that are physical devices, electronic or mechanical.
entity Equipment <<abstract>> extends PowerSystemResource {
    ' aggregate: float /' The aggregate flag provides an alternative way of representing an aggregated (equivalent) element. It is applicable in cases when the dedicated classes for equivalent equipment do not have all of the attributes necessary to represent the required level of detail.  In case the flag is set to “true” the single instance of equipment represents multiple pieces of equipment that have been modelled together as an aggregate equivalent obtained by a network reduction procedure. Examples would be power transformers '/
    ' normallyInService: float /' Specifies the availability of the equipment under normal operating conditions. True means the equipment is available for topology processing, which determines if the equipment is energized or not. False means that the equipment is treated by network applications as if it is not in the model. '/
    ' EquipmentContainer --> EquipmentContainer /' Container of this equipment. '/
    ' -- OperationalLimitSet --> OperationalLimitSet /' The operational limit sets associated with this equipment. '/
}

' Defines a system base voltage which is referenced.
' entity BaseVoltage extends IdentifiedObject {
'     nominalVoltage: float /' The power system resource's base voltage. Shall be a positive value and not zero. '/
' }

' The parts of the AC power system that are designed to carry current or that are conductively connected through terminals.
entity ConductingEquipment <<abstract>> extends Equipment {
}

' EquipmentContainer "Equipments" <--> "EquipmentContainer" Equipment : contains /' Contained equipment. '/
Equipment --> EquipmentContainer : EquipmentContainer /' Container of this equipment. '/

EquipmentContainer --> Equipment : Equipments /' Contained equipment. '/

' ConductingEquipment --> BaseVoltage : BaseVoltage /' Base voltage of this conducting equipment. Use only when there is no voltage level container used and only one base voltage applies. For example, not used for transformers. '/


@enduml